<svg xmlns="http://www.w3.org/2000/svg" width="62" height="13.684" viewBox="0 0 62 13.684">
  <g id="Group_14" data-name="Group 14" transform="translate(-190 -297.658)">
    <path id="Line_3" data-name="Line 3" d="M61,.5H0A.5.5,0,0,1-.5,0,.5.5,0,0,1,0-.5H61a.5.5,0,0,1,.5.5A.5.5,0,0,1,61,.5Z" transform="translate(190.5 304.5)" fill="#292929"/>
    <path id="Path_1" data-name="Path 1" d="M852.161,599.786a.5.5,0,0,1-.354-.854l5.989-5.989-5.989-5.989a.5.5,0,0,1,.707-.707l6.342,6.342a.5.5,0,0,1,0,.707l-6.342,6.342A.5.5,0,0,1,852.161,599.786Z" transform="translate(-607.003 -288.443)" fill="#292929"/>
  </g>
</svg>
