<svg xmlns="http://www.w3.org/2000/svg" width="124.723" height="27.528" viewBox="0 0 124.723 27.528">
  <g id="Group_14" data-name="Group 14" transform="translate(-190 -297.658)">
    <path id="Line_3" data-name="Line 3" d="M123.217,1.512H.506A1.006,1.006,0,0,1,.506-.5H123.217a1.006,1.006,0,0,1,0,2.012Z" transform="translate(190.5 310.916)" fill="#292929"/>
    <path id="Path_1" data-name="Path 1" d="M852.667,613.63a1.006,1.006,0,0,1-.711-1.717L864,599.865l-12.047-12.047a1.006,1.006,0,0,1,1.423-1.423l12.758,12.758a1.006,1.006,0,0,1,0,1.423l-12.758,12.758A1,1,0,0,1,852.667,613.63Z" transform="translate(-551.708 -288.444)" fill="#292929"/>
  </g>
</svg>
